<?xml version="1.0" encoding="UTF-8" standalone="no"?>
<!-- Generator: Adobe Illustrator 24.2.0, SVG Export Plug-In . SVG Version: 6.00 Build 0)  -->

<svg
   version="1.1"
   x="0px"
   y="0px"
   viewBox="0 0 988.90005 228.96001"
   xml:space="preserve"
   id="svg22"
   sodipodi:docname="logo.svg"
   width="988.90002"
   height="228.96001"
   inkscape:version="1.1.2 (0a00cf5339, 2022-02-04)"
   xmlns:inkscape="http://www.inkscape.org/namespaces/inkscape"
   xmlns:sodipodi="http://sodipodi.sourceforge.net/DTD/sodipodi-0.dtd"
   xmlns="http://www.w3.org/2000/svg"
   xmlns:svg="http://www.w3.org/2000/svg"><defs
   id="defs26" /><sodipodi:namedview
   id="namedview24"
   pagecolor="#ffffff"
   bordercolor="#666666"
   borderopacity="1.0"
   inkscape:pageshadow="2"
   inkscape:pageopacity="0.0"
   inkscape:pagecheckerboard="0"
   showgrid="false"
   fit-margin-top="3"
   fit-margin-left="3"
   fit-margin-right="3"
   fit-margin-bottom="3"
   inkscape:zoom="2.8405298"
   inkscape:cx="494.45001"
   inkscape:cy="113.8872"
   inkscape:window-width="3840"
   inkscape:window-height="2100"
   inkscape:window-x="0"
   inkscape:window-y="0"
   inkscape:window-maximized="1"
   inkscape:current-layer="svg22" />
<style
   type="text/css"
   id="style2">
	.st0{display:none;}
	.st1{display:inline;fill:#FC1154;}
	.st2{display:inline;fill:#00FFFF;}
	.st3{display:inline;fill:none;stroke:#00FFFF;stroke-miterlimit:10;}
	.st4{fill:#FFFFFF;}
	.st5{fill:#FC1154;}
</style>
<g
   id="Raspberry_x5F_Background"
   class="st0"
   transform="translate(-235.4,-220.1)">
</g>
<g
   id="Guides"
   transform="translate(-235.4,-220.1)">
</g>
<g
   id="Exclusion_x5F_Zone"
   class="st0"
   transform="translate(-235.4,-220.1)">
	<path
   class="st2"
   d="m 840.57,112.65 c -8.21,3.46 -17.06,6.13 -25.65,8.04 -3.09,59.36 -45.05,101.67 -102.04,101.67 -59.24,0 -102.23,-45.7 -102.23,-108.67 V 4.49 h 57.56 v 109.2 c 0,23.57 11.7,51.11 44.67,51.11 30.33,0 42.66,-23.31 44.44,-45.39 C 733.41,109.35 718.61,85.1 718.61,52.92 718.61,37.67 724,23.89 733.79,14.11 742.77,5.14 755.03,0 767.44,0 c 27.37,0 47.28,25.57 47.52,60.91 1.12,-0.41 2.2,-0.84 3.25,-1.28 8.94,-3.64 21.19,5.28 27.37,19.92 6.16,14.64 3.93,29.46 -5.01,33.1 z"
   id="path6" />
	<path
   class="st2"
   d="m 840.57,558.42 c -8.21,3.46 -17.06,6.13 -25.65,8.04 -3.09,59.36 -45.05,101.67 -102.04,101.67 -59.24,0 -102.23,-45.7 -102.23,-108.67 v -109.2 h 57.56 v 109.2 c 0,23.57 11.7,51.11 44.67,51.11 30.33,0 42.66,-23.31 44.44,-45.39 -23.91,-10.06 -38.71,-34.31 -38.71,-66.49 0,-15.25 5.39,-29.03 15.18,-38.81 8.98,-8.97 21.24,-14.11 33.65,-14.11 27.37,0 47.28,25.57 47.52,60.91 1.12,-0.41 2.2,-0.84 3.25,-1.28 8.94,-3.64 21.19,5.28 27.37,19.92 6.16,14.64 3.93,29.46 -5.01,33.1 z"
   id="path8" />
	<rect
   x="238.41"
   y="222.36"
   class="st3"
   width="982.89001"
   height="223.41"
   id="rect10" />
	<rect
   x="0"
   y="0"
   class="st3"
   width="1459.71"
   height="668.13"
   id="rect12" />
	<path
   class="st2"
   d="m 229.92,335.91 c -8.21,3.46 -17.06,6.13 -25.65,8.04 -3.09,59.36 -45.05,101.67 -102.04,101.67 C 42.99,445.62 0,399.92 0,336.96 v -109.2 h 57.56 v 109.2 c 0,23.57 11.7,51.11 44.67,51.11 30.33,0 42.66,-23.31 44.44,-45.39 -23.91,-10.06 -38.71,-34.31 -38.71,-66.49 0,-15.25 5.39,-29.03 15.18,-38.81 8.98,-8.97 21.24,-14.11 33.65,-14.11 27.37,0 47.28,25.57 47.52,60.91 1.12,-0.41 2.2,-0.84 3.25,-1.28 8.94,-3.64 21.19,5.28 27.37,19.92 6.17,14.63 3.93,29.45 -5.01,33.09 z"
   id="path14" />
	<path
   class="st2"
   d="m 1451.22,335.91 c -8.21,3.46 -17.06,6.13 -25.65,8.04 -3.09,59.36 -45.05,101.67 -102.04,101.67 -59.24,0 -102.23,-45.7 -102.23,-108.67 v -109.2 h 57.56 v 109.2 c 0,23.57 11.7,51.11 44.67,51.11 30.33,0 42.66,-23.31 44.44,-45.39 -23.91,-10.06 -38.71,-34.31 -38.71,-66.49 0,-15.25 5.39,-29.03 15.18,-38.81 8.98,-8.97 21.24,-14.11 33.65,-14.11 27.37,0 47.28,25.57 47.52,60.91 1.12,-0.41 2.2,-0.84 3.25,-1.28 8.94,-3.64 21.19,5.28 27.37,19.92 6.16,14.64 3.92,29.46 -5.01,33.1 z"
   id="path16" />
</g>
<g
   id="Unzer_x5F_Logo"
   transform="translate(-235.4,-220.1)">
	<path
   class="st5"
   d="M 661.05,302.54 V 442.01 H 603.5 V 325.38 c 0,-28.74 -21.39,-44.25 -41.51,-44.25 -17.43,0 -31.05,8.33 -44.13,27.02 V 442.02 H 460.31 V 339.09 c -5.81,2.01 -11.78,3.7 -17.65,5.01 -3.08,59.36 -45.04,101.68 -102.04,101.68 -59.23,0 -102.22,-45.7 -102.22,-108.66 v -109.2 h 57.56 v 109.2 c 0,23.57 11.7,51.1 44.67,51.1 30.33,0 42.66,-23.3 44.43,-45.39 -23.91,-10.06 -38.71,-34.3 -38.71,-66.49 0,-33.34 24.86,-52.95 48.84,-52.95 30.68,0 47.66,30.56 47.5,60.93 0,0 8.51,-3.05 17.62,-8.22 v -48.19 h 57.55 v 18.37 c 19.69,-16.02 37.87,-23.18 58.85,-23.18 23.18,0 44.55,8.11 60.16,22.84 15.6,14.72 24.18,34.82 24.18,56.6 z M 684,278.66 h 97.44 l -102.67,122 -0.08,0.09 v 41.26 H 861.13 V 391.35 H 757.88 l 103.17,-123.63 0.08,-0.09 V 227.92 H 684 Z m 363.6,-25.61 c 19.3,19.58 29.5,47.36 29.5,80.34 v 19.86 H 922.48 c 3.99,26.41 22.98,42.16 50.86,42.16 23.17,0 43.21,-9.32 52.29,-24.31 l 0.15,-0.26 0.27,0.12 45.12,20.32 -0.16,0.32 c -18.03,34.61 -53.92,54.46 -98.49,54.46 -64,0 -107,-44.63 -107,-111.06 0,-31.32 11.41,-59.88 32.13,-80.43 19.91,-19.75 46.5,-30.63 74.88,-30.63 30.35,0.01 56.3,10.07 75.07,29.11 z m -26.54,55.21 c -4.73,-22.1 -22.84,-35.27 -48.53,-35.27 -23.44,0 -41.46,13.17 -48.28,35.27 z m 200.24,-81.91 c -7.63,-2.4 -16.31,-2.4 -16.31,-2.4 -18.88,0 -37.09,7.29 -52.7,21.08 v -17.11 h -57.55 v 214.1 h 57.55 V 309.23 c 11.35,-21.54 28.77,-33.4 49.05,-33.4 0,0 9.12,0.08 14.8,1.75 z"
   id="path19" />
</g>
</svg>
